# Blender 5.2.0 LTS
# www.blender.org
mtllib Conchas_GameJam.mtl
o Cone
v 0.000000 0.291342 -0.080475
v -0.047302 0.291342 -0.065105
v -0.076536 0.291342 -0.024868
v -0.076536 0.291342 0.024868
v -0.047302 0.291342 0.065105
v 0.000000 0.279926 0.080475
v 0.047302 0.291342 0.065105
v 0.076536 0.291342 0.024868
v 0.076536 0.291342 -0.024868
v 0.047302 0.291342 -0.065105
v 0.000000 0.142504 -0.029240
v -0.021056 0.142504 -0.020872
v -0.034070 0.142504 0.001035
v -0.034070 0.142504 0.028114
v -0.021056 0.142504 0.050022
v 0.000000 0.135029 0.050373
v 0.021056 0.142504 0.050022
v 0.034070 0.142504 0.028114
v 0.034070 0.142504 0.001035
v 0.021056 0.142504 -0.020872
v -0.017729 0.122891 -0.011341
v 0.000000 0.122891 -0.016896
v -0.028686 0.122891 0.003201
v -0.028686 0.122891 0.021177
v -0.017729 0.122891 0.035719
v 0.000000 0.122891 0.041274
v 0.017729 0.122891 0.035719
v 0.028686 0.122891 0.021177
v 0.028686 0.122891 0.003201
v 0.017729 0.122891 -0.011341
v -0.015380 0.115960 -0.005098
v 0.000000 0.116238 -0.009772
v -0.024323 0.115536 0.006645
v -0.024318 0.115532 0.020814
v -0.015368 0.115946 0.032566
v 0.000000 0.116222 0.037248
v 0.015368 0.115946 0.032566
v 0.024318 0.115532 0.020814
v 0.024323 0.115536 0.006645
v 0.015380 0.115960 -0.005098
v 0.010580 0.107054 0.008079
v 0.016732 0.106762 0.016157
v 0.016729 0.106759 0.025904
v 0.010572 0.107044 0.033988
v 0.000000 0.107234 0.037209
v -0.010572 0.107044 0.033988
v -0.016729 0.106759 0.025904
v -0.016732 0.106762 0.016157
v 0.000000 0.107245 0.004864
v -0.010580 0.107054 0.008079
v 0.000000 0.309594 -0.070611
v 0.000000 0.302024 -0.080475
v -0.047302 0.302024 -0.065105
v -0.041504 0.309594 -0.057126
v -0.076536 0.302024 -0.024868
v -0.067155 0.309594 -0.021820
v -0.076536 0.302024 0.024868
v -0.067155 0.309594 0.021820
v -0.047302 0.302024 0.065105
v -0.041504 0.309594 0.057126
v 0.000000 0.302024 0.080475
v 0.000000 0.309594 0.070611
v 0.047302 0.302024 0.065105
v 0.041504 0.309594 0.057126
v 0.076536 0.302024 0.024868
v 0.067155 0.309594 0.021820
v 0.076536 0.302024 -0.024868
v 0.067155 0.309594 -0.021820
v 0.047302 0.302024 -0.065105
v 0.041504 0.309594 -0.057126
v 0.031372 0.334357 -0.043180
v 0.041504 0.317963 -0.057126
v 0.050761 0.334357 -0.016493
v 0.067155 0.317963 -0.021820
v 0.050761 0.334357 0.016493
v 0.067155 0.317963 0.021820
v 0.031372 0.334357 0.043180
v 0.041504 0.317963 0.057126
v 0.000000 0.334357 0.053374
v 0.000000 0.317963 0.070611
v -0.031372 0.334357 0.043180
v -0.041504 0.317963 0.057126
v -0.050761 0.334357 0.016493
v -0.067155 0.317963 0.021820
v -0.050761 0.334357 -0.016493
v -0.067155 0.317963 -0.021820
v 0.000000 0.334357 -0.053374
v 0.000000 0.317963 -0.070611
v -0.031372 0.334357 -0.043180
v -0.041504 0.317963 -0.057126
v -0.031037 0.340079 -0.042719
v -0.050219 0.340079 -0.016317
v -0.050219 0.340079 0.016317
v -0.031037 0.340079 0.042719
v 0.000000 0.340079 0.052803
v 0.031037 0.340079 0.042719
v 0.050219 0.340079 0.016317
v 0.050219 0.340079 -0.016317
v 0.006561 0.099543 0.021242
v 0.010427 0.099421 0.026171
v 0.010519 0.099529 0.032151
v 0.006707 0.099819 0.037185
v 0.000000 0.099975 0.039219
v -0.006707 0.099819 0.037185
v 0.000000 0.088907 0.040783
v -0.010519 0.099529 0.032151
v -0.010427 0.099421 0.026171
v 0.000000 0.099644 0.019284
v -0.006561 0.099543 0.021242
v -0.041791 0.260093 0.061938
v -0.040208 0.164017 0.027645
v -0.058750 0.229005 0.026228
v -0.008356 0.135029 0.050373
v -0.057536 0.228125 -0.017090
v 0.000000 0.291342 0.080475
v -0.048475 0.192993 0.011274
v 0.000000 0.340079 -0.052803
v 0.031037 0.340079 -0.042719
v 0.000000 0.346907 -0.042307
v -0.024868 0.346907 -0.034227
v -0.040237 0.346907 -0.013074
v -0.040237 0.346907 0.013074
v -0.024868 0.346907 0.034228
v 0.000000 0.346907 0.042308
v 0.024868 0.346907 0.034228
v 0.040237 0.346907 0.013074
v 0.040237 0.346907 -0.013074
v 0.000000 0.379563 0.000000
v 0.024868 0.346907 -0.034227
v 0.000000 0.292127 -0.075710
v -0.044465 0.292116 -0.061275
v -0.071994 0.292065 -0.023398
v -0.071947 0.291895 0.023472
v -0.044444 0.291722 0.061232
v -0.000523 0.280261 0.075686
v 0.044449 0.291789 0.061236
v 0.071957 0.291948 0.023462
v 0.071994 0.292065 -0.023398
v 0.044465 0.292116 -0.061275
v 0.000000 0.144495 -0.024841
v -0.018333 0.144325 -0.017325
v -0.029661 0.143982 0.002338
v -0.029701 0.144030 0.026738
v -0.018001 0.144839 0.047102
v -0.001215 0.137120 0.046194
v 0.018492 0.144132 0.046269
v 0.029720 0.144010 0.026658
v 0.029661 0.143982 0.002338
v 0.018333 0.144325 -0.017325
v -0.015271 0.125533 -0.008133
v 0.000000 0.125821 -0.013059
v -0.024577 0.125038 0.004549
v -0.024475 0.124947 0.020015
v -0.015114 0.125407 0.032534
v -0.000029 0.125647 0.037310
v 0.015179 0.125367 0.032451
v 0.024475 0.124947 0.020015
v 0.024577 0.125038 0.004549
v 0.015271 0.125533 -0.008133
v -0.013557 0.119591 -0.002489
v 0.000000 0.120006 -0.006752
v -0.020945 0.118785 0.007803
v -0.020435 0.118142 0.019620
v -0.012660 0.117721 0.028984
v 0.000000 0.117563 0.032609
v 0.012660 0.117721 0.028984
v 0.020435 0.118142 0.019620
v 0.020945 0.118785 0.007803
v 0.013557 0.119591 -0.002489
v 0.009175 0.111163 0.010189
v 0.013782 0.110468 0.017091
v 0.012817 0.109192 0.024457
v 0.007796 0.107397 0.030053
v 0.000000 0.106585 0.032424
v -0.007796 0.107397 0.030053
v -0.012817 0.109192 0.024457
v -0.013782 0.110468 0.017091
v 0.000000 0.111427 0.007278
v -0.009175 0.111163 0.010189
v 0.000000 0.307272 -0.066378
v 0.000000 0.300039 -0.076073
v -0.044714 0.300039 -0.061544
v -0.039016 0.307272 -0.053701
v -0.072349 0.300039 -0.023508
v -0.063129 0.307272 -0.020512
v -0.072349 0.300039 0.023508
v -0.063129 0.307272 0.020512
v -0.044714 0.300039 0.061544
v -0.039016 0.307272 0.053701
v 0.000000 0.300039 0.076073
v 0.000000 0.307272 0.066378
v 0.044714 0.300039 0.061544
v 0.039016 0.307272 0.053701
v 0.072349 0.300039 0.023508
v 0.063129 0.307272 0.020512
v 0.072349 0.300039 -0.023508
v 0.063129 0.307272 -0.020512
v 0.044714 0.300039 -0.061544
v 0.039016 0.307272 -0.053701
v 0.028866 0.332093 -0.039730
v 0.038866 0.316183 -0.053495
v 0.046706 0.332093 -0.015176
v 0.062887 0.316183 -0.020433
v 0.046706 0.332093 0.015176
v 0.062887 0.316183 0.020433
v 0.028866 0.332093 0.039730
v 0.038866 0.316183 0.053495
v 0.000000 0.332093 0.049109
v 0.000000 0.316183 0.066123
v -0.028866 0.332093 0.039730
v -0.038866 0.316183 0.053495
v -0.046706 0.332093 0.015176
v -0.062887 0.316183 0.020433
v -0.046706 0.332093 -0.015176
v -0.062887 0.316183 -0.020433
v 0.000000 0.332093 -0.049109
v 0.000000 0.316183 -0.066123
v -0.028866 0.332093 -0.039730
v -0.038866 0.316183 -0.053495
v -0.028555 0.337736 -0.039303
v -0.046203 0.337736 -0.015012
v -0.046203 0.337736 0.015012
v -0.028555 0.337736 0.039303
v 0.000000 0.337736 0.048581
v 0.028555 0.337736 0.039303
v 0.046203 0.337736 0.015012
v 0.046203 0.337736 -0.015012
v 0.005133 0.103638 0.023366
v 0.002214 0.093381 0.038546
v 0.007273 0.102942 0.027155
v 0.002563 0.093073 0.039904
v 0.006230 0.101106 0.030594
v 0.001796 0.092060 0.040349
v 0.003987 0.098813 0.033325
v 0.001248 0.091255 0.040731
v 0.000000 0.098107 0.034766
v 0.000000 0.091022 0.041108
v -0.003987 0.098813 0.033325
v -0.001248 0.091255 0.040731
v -0.006230 0.101106 0.030594
v -0.001796 0.092060 0.040349
v -0.007273 0.102942 0.027155
v -0.002563 0.093073 0.039904
v 0.000000 0.093399 0.037734
v 0.000000 0.103836 0.021679
v -0.005133 0.103638 0.023366
v -0.002214 0.093381 0.038546
v -0.038511 0.260899 0.058489
v -0.035591 0.165323 0.027099
v -0.054138 0.230222 0.025477
v -0.006933 0.138094 0.046924
v -0.035039 0.228125 -0.048873
v 0.001475 0.292063 0.075934
v -0.043832 0.194318 0.011274
v 0.000000 0.337736 -0.048581
v 0.028555 0.337736 -0.039303
v 0.040446 0.162941 0.017612
v 0.000000 0.343122 -0.039309
v 0.026291 0.162941 0.038503
v -0.023105 0.343122 -0.031802
v -0.037385 0.343122 -0.012147
v 0.003389 0.156569 0.043655
v -0.033668 0.162941 -0.008212
v -0.037385 0.343122 0.012147
v -0.023105 0.343122 0.031802
v -0.019514 0.162941 -0.029103
v 0.024403 0.163836 -0.026599
v 0.000000 0.343122 0.039309
v 0.023105 0.343122 0.031802
v 0.003389 0.163900 -0.033973
v 0.037385 0.343122 0.012147
v 0.026291 0.162941 -0.029103
v 0.003389 0.162941 -0.037083
v 0.037385 0.343122 -0.012147
v 0.000000 0.375252 0.000000
v 0.023105 0.343122 -0.031802
v 0.001442 0.191814 -0.047664
v -0.028122 0.191814 -0.037398
v 0.031006 0.191814 -0.037398
v -0.046393 0.191814 -0.010521
v 0.001442 0.183643 0.056376
v 0.031006 0.191814 0.049577
v 0.049278 0.191814 0.022700
v 0.049278 0.191814 -0.010521
v 0.001442 0.193014 -0.043701
v -0.025717 0.192936 -0.034208
v 0.028602 0.192936 -0.034208
v -0.042522 0.192765 -0.009323
v 0.000691 0.184692 0.052498
v 0.028663 0.192711 0.046280
v 0.045416 0.192727 0.021462
v 0.045407 0.192765 -0.009323
v 0.003315 0.088885 0.037171
v 0.000000 0.088834 0.036159
v 0.005067 0.088968 0.039469
v 0.005066 0.088966 0.042095
v 0.003310 0.088884 0.044397
v 0.000000 0.088831 0.045410
v -0.003310 0.088884 0.044397
v -0.005066 0.088966 0.042095
v -0.005067 0.088968 0.039469
v -0.003315 0.088885 0.037171
v -0.006142 0.379563 0.008454
v -0.009939 0.379563 0.003229
v 0.006142 0.379563 -0.008454
v 0.009939 0.379563 -0.003229
v 0.006142 0.379563 0.008455
v 0.000000 0.379563 0.010450
v -0.009939 0.379563 -0.003229
v -0.006142 0.379563 -0.008454
v 0.000000 0.379563 -0.010450
v 0.009939 0.379563 0.003229
v -0.004865 0.375252 0.006696
v -0.007871 0.375252 0.002558
v 0.004865 0.375252 -0.006696
v 0.007871 0.375252 -0.002557
v 0.004865 0.375252 0.006696
v 0.000000 0.375252 0.008277
v -0.007871 0.375252 -0.002557
v -0.004865 0.375252 -0.006696
v 0.000000 0.375252 -0.008276
v 0.007871 0.375252 0.002558
v 0.040446 0.162941 -0.008212
v -0.017625 0.163836 -0.026599
v -0.030627 0.163698 -0.007272
v 0.002789 0.157416 0.040615
v 0.024453 0.163661 0.035913
v 0.037413 0.163670 0.016638
v 0.037405 0.163698 -0.007272
v 0.001362 0.218849 0.064477
v 0.037762 0.228125 0.053979
v 0.060259 0.228125 0.022196
v 0.060259 0.228125 -0.017090
v -0.032557 0.229023 -0.045548
v -0.053552 0.228918 -0.015826
v 0.000758 0.219504 0.060373
v 0.035302 0.228761 0.050585
v 0.056262 0.228844 0.020944
v 0.056275 0.228918 -0.015826
v 0.001362 0.228125 -0.061013
v 0.037762 0.228125 -0.048873
v 0.001362 0.229065 -0.056879
v 0.035280 0.229023 -0.045548
vn -0.7523 -0.4350 0.4948
vn 0.2956 -0.4843 -0.8235
vn 0.2317 -0.5928 0.7713
vn 0.7523 -0.4350 0.4948
vn 0.9643 -0.2647 -0.0000
vn 0.7888 -0.3298 -0.5187
vn -0.7888 -0.3298 -0.5187
vn -0.9643 -0.2647 -0.0000
vn -0.2956 -0.4843 -0.8235
vn -0.3313 -0.3104 -0.8910
vn 0.3188 -0.4044 -0.8572
vn -0.8296 -0.1857 -0.5266
vn -0.9594 -0.2818 -0.0098
vn -0.7952 -0.2089 0.5692
vn -0.3056 -0.1492 0.9404
vn -0.0114 0.4004 0.9163
vn 0.8433 0.0489 0.5353
vn 0.9562 -0.2927 -0.0000
vn 0.9546 -0.2978 -0.0000
vn 0.9548 -0.2974 -0.0000
vn 0.7644 -0.4246 -0.4852
vn -0.6218 -0.6182 -0.4808
vn -0.2041 -0.7044 -0.6798
vn 0.2041 -0.7044 -0.6798
vn -0.8600 -0.5103 0.0001
vn -0.7030 -0.4633 0.5395
vn -0.2546 -0.4853 0.8365
vn 0.2546 -0.4853 0.8365
vn 0.7030 -0.4633 0.5395
vn 0.8600 -0.5103 0.0001
vn 0.6218 -0.6182 -0.4808
vn -0.7507 -0.3114 0.5827
vn 0.1422 -0.8433 -0.5182
vn -0.2913 -0.0041 0.9566
vn 0.2913 -0.0041 0.9566
vn 0.7507 -0.3114 0.5827
vn 0.7563 -0.6542 0.0001
vn 0.7566 -0.6539 0.0001
vn 0.7582 -0.6520 0.0001
vn 0.4575 -0.8051 -0.3775
vn -0.1422 -0.8433 -0.5182
vn -0.4575 -0.8051 -0.3775
vn -0.7563 -0.6542 0.0001
vn -0.7582 -0.6520 0.0001
vn -0.7566 -0.6539 0.0001
vn -0.1941 0.7782 -0.5973
vn -0.5081 0.7782 -0.3691
vn -0.6280 0.7782 -0.0000
vn -0.5081 0.7782 0.3691
vn -0.1941 0.7782 0.5973
vn 0.1941 0.7782 0.5973
vn 0.5081 0.7782 0.3691
vn 0.6280 0.7782 -0.0000
vn 0.5081 0.7782 -0.3691
vn 0.1941 0.7782 -0.5973
vn -0.3090 -0.0000 -0.9511
vn 0.3090 -0.0000 -0.9511
vn -0.8090 -0.0000 -0.5878
vn -1.0000 -0.0000 -0.0000
vn -0.8090 -0.0000 0.5878
vn -0.3090 -0.0000 0.9511
vn 0.3090 -0.0000 0.9511
vn 0.8090 -0.0000 0.5878
vn 1.0000 -0.0000 -0.0000
vn 0.8090 -0.0000 -0.5878
vn 0.5721 0.7071 -0.4156
vn 0.5721 0.7071 0.4156
vn -0.2185 0.7071 0.6725
vn -0.7071 0.7071 -0.0000
vn -0.2185 0.7071 -0.6725
vn -0.5721 0.7071 -0.4156
vn 0.2185 0.7071 0.6725
vn 0.7071 0.7071 -0.0000
vn -0.5721 0.7071 0.4156
vn 0.2185 0.7071 -0.6725
vn 0.3076 0.0944 -0.9468
vn -0.3076 0.0944 -0.9468
vn -0.8054 0.0944 -0.5852
vn -0.9955 0.0944 -0.0000
vn -0.8054 0.0944 0.5852
vn -0.3076 0.0944 0.9468
vn 0.3076 0.0944 0.9468
vn 0.8054 0.0944 0.5852
vn 0.9955 0.0944 -0.0000
vn 0.8054 0.0944 -0.5852
vn 0.1553 -0.8336 -0.5301
vn 0.5094 -0.7618 -0.4002
vn 0.8875 -0.4607 -0.0037
vn 0.7896 0.1498 0.5950
vn 0.2610 0.4713 0.8425
vn -0.2610 0.4713 0.8425
vn -0.7896 0.1498 0.5950
vn -0.8875 -0.4607 -0.0037
vn -0.5094 -0.7618 -0.4002
vn -0.1553 -0.8336 -0.5301
vn 0.4196 -0.8376 -0.3498
vn 0.1247 -0.8777 -0.4627
vn 0.7587 -0.6515 0.0001
vn 0.7836 -0.1527 0.6022
vn 0.2859 0.2557 0.9235
vn -0.2859 0.2557 0.9235
vn -0.7836 -0.1527 0.6022
vn -0.7587 -0.6515 0.0001
vn -0.4196 -0.8376 -0.3498
vn -0.1247 -0.8777 -0.4627
vn -0.2946 -0.6348 0.7143
vn -0.8371 -0.2280 0.4973
vn -0.5931 0.6801 0.4309
vn 0.5931 0.6801 -0.4309
vn 0.2265 0.6801 0.6972
vn -0.5931 0.6801 -0.4309
vn 0.2265 0.6801 -0.6972
vn -0.2265 0.6801 0.6972
vn 0.5931 0.6801 0.4309
vn -0.2265 0.6801 -0.6972
vn -0.7331 0.6801 -0.0000
vn 0.7331 0.6801 -0.0000
vn -0.1745 0.8254 -0.5369
vn 0.1745 0.8254 -0.5369
vn -0.4567 0.8254 -0.3318
vn -0.5646 0.8254 -0.0000
vn -0.4567 0.8254 0.3318
vn -0.1745 0.8254 0.5369
vn 0.1745 0.8254 0.5369
vn 0.4567 0.8254 0.3318
vn 0.5646 0.8254 -0.0000
vn 0.4567 0.8254 -0.3318
vn 0.7512 0.4334 -0.4978
vn -0.2979 0.4847 0.8224
vn -0.2207 0.5955 -0.7725
vn -0.7545 0.4360 -0.4906
vn -0.9650 0.2623 -0.0007
vn -0.7930 0.3266 0.5143
vn 0.7930 0.3266 0.5143
vn 0.9651 0.2618 -0.0012
vn 0.2979 0.4847 0.8224
vn 0.3260 0.3759 0.8674
vn -0.3105 0.4670 0.8279
vn 0.8194 0.2530 0.5144
vn 0.9603 0.2791 0.0023
vn 0.7928 0.2081 -0.5728
vn 0.3009 0.1418 -0.9431
vn 0.0165 -0.3750 -0.9269
vn -0.8489 0.0212 -0.5281
vn -0.9308 0.3655 0.0013
vn -0.7391 0.4852 0.4672
vn 0.6160 0.6224 0.4828
vn 0.1971 0.7129 0.6730
vn -0.1971 0.7129 0.6730
vn 0.8627 0.5056 -0.0058
vn 0.6980 0.4618 -0.5474
vn 0.2530 0.4795 -0.8403
vn -0.2540 0.4771 -0.8414
vn -0.6980 0.4628 -0.5465
vn -0.8627 0.5056 -0.0058
vn -0.6160 0.6224 0.4828
vn 0.7462 0.3014 -0.5936
vn -0.1376 0.8456 0.5159
vn 0.2823 0.0246 -0.9590
vn -0.2823 0.0246 -0.9590
vn -0.7462 0.3014 -0.5936
vn -0.7567 0.6537 0.0072
vn -0.4465 0.8091 0.3821
vn 0.1376 0.8456 0.5159
vn 0.4465 0.8091 0.3821
vn 0.7567 0.6537 0.0072
vn 0.1907 -0.7868 0.5870
vn 0.4993 -0.7868 0.3628
vn 0.6172 -0.7868 -0.0000
vn 0.4993 -0.7868 -0.3628
vn 0.1907 -0.7868 -0.5870
vn -0.1907 -0.7868 -0.5870
vn -0.4993 -0.7868 -0.3628
vn -0.6172 -0.7868 -0.0000
vn -0.4993 -0.7868 0.3628
vn -0.1907 -0.7868 0.5870
vn 0.3086 0.0427 0.9502
vn -0.3086 0.0427 0.9502
vn 0.8081 0.0447 0.5873
vn 0.9989 0.0470 -0.0004
vn 0.8079 0.0455 -0.5876
vn 0.3132 0.0208 -0.9495
vn -0.3111 0.0323 -0.9498
vn -0.8079 0.0453 -0.5876
vn -0.9989 0.0465 -0.0003
vn -0.8081 0.0447 0.5873
vn -0.5672 -0.7131 0.4121
vn -0.5672 -0.7131 -0.4121
vn 0.2167 -0.7131 -0.6668
vn 0.7011 -0.7131 -0.0000
vn 0.2166 -0.7131 0.6668
vn 0.5672 -0.7131 0.4121
vn -0.2167 -0.7131 -0.6668
vn -0.7011 -0.7131 -0.0000
vn 0.5672 -0.7131 -0.4121
vn -0.2166 -0.7131 0.6668
vn -0.3089 -0.0272 0.9507
vn -0.8087 -0.0272 0.5876
vn -0.9996 -0.0272 -0.0000
vn -0.8087 -0.0272 -0.5876
vn -0.3089 -0.0272 -0.9507
vn 0.3089 -0.0272 -0.9507
vn 0.8087 -0.0272 -0.5876
vn 0.9996 -0.0272 -0.0000
vn 0.8087 -0.0272 0.5876
vn 0.3089 -0.0272 0.9507
vn -0.3078 -0.0886 0.9473
vn 0.3078 -0.0886 0.9473
vn 0.8058 -0.0887 0.5855
vn 0.9961 -0.0887 -0.0000
vn 0.8058 -0.0887 -0.5855
vn 0.3078 -0.0886 -0.9473
vn -0.3078 -0.0886 -0.9473
vn -0.8058 -0.0887 -0.5855
vn -0.9961 -0.0887 -0.0000
vn -0.8058 -0.0887 0.5855
vn -0.1577 0.8299 0.5351
vn -0.5229 0.7529 0.3997
vn -0.6934 -0.3875 -0.6075
vn 0.0415 -0.7266 -0.6858
vn -0.1360 -0.6644 -0.7349
vn 0.1360 -0.6644 -0.7349
vn -0.0415 -0.7266 -0.6858
vn 0.6934 -0.3875 -0.6075
vn 0.5229 0.7529 0.3997
vn 0.1577 0.8299 0.5351
vn -0.0000 0.8072 0.5902
vn -0.4012 0.8412 0.3626
vn -0.1206 0.8778 0.4635
vn -0.7342 0.6764 0.0583
vn -0.7794 0.1417 -0.6102
vn -0.2695 -0.2462 -0.9310
vn 0.2695 -0.2462 -0.9310
vn 0.7794 0.1417 -0.6102
vn 0.7342 0.6764 0.0583
vn 0.4012 0.8412 0.3626
vn 0.1206 0.8778 0.4635
vn 0.2841 0.6333 -0.7199
vn 0.8376 0.2401 -0.4908
vn 0.5958 -0.6765 -0.4329
vn -0.5958 -0.6765 0.4329
vn -0.2276 -0.6765 -0.7004
vn 0.5958 -0.6765 0.4329
vn -0.2276 -0.6765 0.7004
vn 0.2276 -0.6765 -0.7004
vn -0.5958 -0.6765 -0.4329
vn 0.2276 -0.6765 0.7004
vn 0.7365 -0.6765 -0.0000
vn -0.7365 -0.6765 -0.0000
vn 0.1611 -0.8534 0.4957
vn -0.1611 -0.8534 0.4957
vn 0.3122 0.3202 0.8944
vn 0.4217 -0.8534 0.3064
vn 0.5212 -0.8534 -0.0000
vn 0.4217 -0.8534 -0.3064
vn 0.1611 -0.8534 -0.4957
vn -0.1611 -0.8534 -0.4957
vn -0.4217 -0.8534 -0.3064
vn -0.5212 -0.8534 -0.0000
vn -0.4217 -0.8534 0.3064
vn -0.1997 -0.9707 -0.1338
vn -0.9900 -0.1135 0.0837
vn -0.9914 -0.0523 0.1198
vn 0.3436 0.5832 0.7361
vn 0.8880 0.2654 0.3754
vn -0.2989 -0.2890 -0.9095
vn 0.3000 -0.2771 -0.9128
vn -0.0135 0.7044 0.7097
vn -0.0390 0.9932 0.1097
vn 0.5492 -0.8180 0.1707
vn 0.1659 -0.3294 0.9295
vn -0.0805 0.4663 0.8809
vn -0.9781 -0.1417 0.1522
vn -0.7776 0.3222 0.5399
vn -0.9577 0.2878 0.0004
vn -0.8015 0.2233 -0.5547
vn -0.2922 0.1888 -0.9375
vn 0.7767 0.3254 0.5393
vn -0.3039 0.3314 0.8932
vn 0.3038 0.3326 0.8928
vn 0.7769 -0.3239 -0.5399
vn 0.9572 -0.2895 -0.0000
vn 0.9567 -0.2909 -0.0000
vn 0.9563 -0.2923 -0.0000
vn 0.8001 -0.2253 0.5560
vn 0.2960 -0.1912 0.9359
vn -0.7760 -0.3270 -0.5393
vn 0.3033 -0.3330 -0.8928
vn -0.3031 -0.3342 -0.8924
vn -0.9195 -0.3734 -0.1229
vn 0.0173 -0.9996 0.0218
vn 0.0107 -0.9998 0.0158
vn 0.0111 -0.9998 0.0161
vn 0.0177 -0.9996 0.0222
vn 0.0118 -0.9999 -0.0007
vn 0.0169 -0.9996 -0.0221
vn 0.0174 -0.9996 -0.0224
vn 0.0112 -0.9998 -0.0170
vn 0.0110 -0.9998 -0.0165
vn -0.0169 -0.9996 -0.0221
vn -0.0110 -0.9998 -0.0165
vn -0.0112 -0.9998 -0.0170
vn -0.0174 -0.9996 -0.0224
vn -0.0118 -0.9999 -0.0007
vn -0.0173 -0.9996 0.0218
vn -0.0177 -0.9996 0.0222
vn -0.0111 -0.9998 0.0161
vn -0.0107 -0.9998 0.0158
vn -0.0000 1.0000 -0.0000
vn -0.0000 -1.0000 -0.0000
vn -0.3163 0.2820 0.9058
vn 0.7746 0.3533 0.5246
vn -0.2980 0.3603 -0.8839
vn -0.7898 0.3051 -0.5321
vn -0.9641 0.2655 0.0006
vn -0.8003 0.2578 0.5413
vn -0.9069 0.2582 0.3331
vn 0.7931 -0.2849 -0.5384
vn 0.7806 -0.3314 0.5299
vn 0.3052 -0.3855 0.8708
vn -0.7659 -0.3784 -0.5199
vn 0.3124 -0.3087 -0.8984
vn -0.3082 -0.3460 -0.8862
vn -0.9825 -0.1574 -0.0994
vn 0.9803 0.1815 0.0783
vn 0.9328 0.3500 0.0862
vn 0.4461 -0.7604 0.4719
vn -0.7754 -0.2975 -0.5570
vn 0.3375 -0.2218 0.9148
vn 0.7916 -0.2237 0.5686
vn 0.9684 -0.2493 -0.0000
vn 0.7828 -0.2666 -0.5623
vn 0.2995 0.2812 0.9117
vn -0.3006 0.2693 0.9150
vn 0.7772 0.2899 0.5585
vn -0.3355 0.2138 -0.9175
vn -0.7932 0.2157 -0.5695
vn -0.9704 0.2415 -0.0000
vn -0.7844 0.2588 0.5637
vn -0.9865 -0.0366 0.1597
vn -0.9593 -0.2795 -0.0397
vn 0.9592 0.2823 0.0164
vt 0.600000 0.962376
vt 0.700000 0.962376
vt -0.000000 0.962376
vt 0.100000 0.962376
vt 0.400000 0.962376
vt 0.500000 0.962376
vt 0.300000 0.962376
vt 0.200000 0.962376
vt 0.800000 0.962376
vt 0.900000 0.962376
vt 1.000000 0.962376
vt 1.000000 0.738749
vt 0.900000 0.738749
vt 0.100000 0.738749
vt -0.000000 0.738749
vt 0.800000 0.738749
vt 0.800000 0.500000
vt 0.800000 0.615594
vt 0.700000 0.693656
vt 0.700000 0.500000
vt 0.600000 0.597078
vt 0.600000 0.500000
vt 0.543610 0.551657
vt 0.500000 0.738749
vt 0.400000 0.738749
vt 0.300000 0.738749
vt 0.200000 0.738749
vt 0.478254 0.324164
vt 0.391068 0.444164
vt 0.357858 0.398453
vt 0.421232 0.305637
vt 0.250000 0.490000
vt 0.250000 0.435770
vt 0.108932 0.444164
vt 0.142143 0.398453
vt 0.478254 0.175836
vt 0.421199 0.194374
vt 0.391068 0.055836
vt 0.357791 0.101639
vt 0.250000 0.010000
vt 0.250000 0.064364
vt 0.108932 0.055836
vt 0.142209 0.101639
vt 0.021746 0.175836
vt 0.078801 0.194374
vt 0.021746 0.324164
vt 0.078768 0.305637
vt 0.750000 0.490000
vt 0.891068 0.444164
vt 0.838468 0.371766
vt 0.750000 0.400511
vt 0.978253 0.324164
vt 0.893144 0.296510
vt 0.978253 0.175836
vt 0.893144 0.203490
vt 0.891069 0.055836
vt 0.838468 0.128234
vt 0.750000 0.010000
vt 0.750000 0.099489
vt 0.608931 0.055836
vt 0.661532 0.128234
vt 0.521746 0.175836
vt 0.606856 0.203490
vt 0.521746 0.324164
vt 0.606856 0.296510
vt 0.608931 0.444164
vt 0.661532 0.371766
vt 1.000000 0.500000
vt 0.900000 0.500000
vt 0.100000 0.500000
vt -0.000000 0.500000
vt 0.500000 0.500000
vt 0.400000 0.500000
vt 0.300000 0.500000
vt 0.200000 0.500000
vt 0.683129 0.342040
vt 0.641800 0.285156
vt 0.641800 0.214844
vt 0.683129 0.157960
vt 0.750000 0.136232
vt 0.816871 0.157960
vt 0.858200 0.214844
vt 0.858200 0.285156
vt 0.893145 0.203490
vt 0.816871 0.342040
vt 0.750000 0.363768
vt 0.183782 0.331020
vt 0.250000 0.353818
vt 0.148644 0.279453
vt 0.148663 0.220659
vt 0.183876 0.169022
vt 0.250000 0.146242
vt 0.316124 0.169022
vt 0.351337 0.220659
vt 0.351356 0.279453
vt 0.316218 0.331020
vt 0.523654 0.962376
vt 0.700000 0.895544
vt 0.763093 0.231979
vt 0.771185 0.243117
vt 0.835097 0.222350
vt 0.802593 0.177612
vt 0.736907 0.268021
vt 0.728815 0.256883
vt 0.664903 0.277650
vt 0.697407 0.322388
vt 0.736907 0.231979
vt 0.750000 0.227725
vt 0.750000 0.160524
vt 0.697407 0.177612
vt 0.771185 0.256883
vt 0.763093 0.268021
vt 0.802593 0.322388
vt 0.835097 0.277650
vt 0.750000 0.272275
vt 0.750000 0.339476
vt 0.728815 0.243117
vt 0.664903 0.222350
vt 0.750000 0.361335
vt 0.815441 0.340072
vt 0.684559 0.340072
vt 0.855886 0.284404
vt 0.855886 0.215596
vt 0.815441 0.159928
vt 0.750000 0.138665
vt 0.684559 0.159928
vt 0.644114 0.215595
vt 0.644114 0.284404
vt 1.000000 0.731188
vt 0.900000 0.731188
vt 0.500000 0.615594
vt 1.000000 0.615594
vt 0.900000 0.615594
vt 0.100000 0.615594
vt -0.000000 0.615594
vt 0.745567 0.805529
vt 0.500000 0.731188
vt 0.200000 0.615594
vt 0.100000 0.731188
vt 0.200000 0.731188
vt 0.300000 0.615594
vt 0.300000 0.731188
vt 0.400000 0.615594
vt 0.400000 0.731188
vt 0.800000 0.731188
vt -0.000000 0.731188
vt 0.250000 0.267252
vt 0.227969 0.259704
vt 0.222444 0.251581
vt 0.222446 0.248596
vt 0.228086 0.240305
vt 0.250000 0.232782
vt 0.271914 0.240305
vt 0.277554 0.248596
vt 0.277555 0.251581
vt 0.272031 0.259704
vt 0.763322 0.245671
vt 0.736678 0.254329
vt 0.750000 0.235992
vt 0.758234 0.261333
vt 0.741766 0.261333
vt 0.758234 0.238667
vt 0.741767 0.238667
vt 0.750000 0.264008
vt 0.763322 0.254329
vt 0.736678 0.245671
vt 0.758121 0.238823
vt 0.741879 0.261177
vt 0.741879 0.238823
vt 0.763140 0.254269
vt 0.750000 0.263816
vt 0.750000 0.236184
vt 0.736860 0.245731
vt 0.758121 0.261177
vt 0.763140 0.245731
vt 0.736860 0.254269
s 1
f 15/1/1 14/2/1 24/2/1 25/1/1
f 11/3/2 20/4/2 30/4/2 22/3/2
f 17/5/3 16/6/3 26/6/3 27/5/3
f 18/7/4 17/5/4 27/5/4 28/7/4
f 19/8/5 18/7/5 28/7/5 29/8/5
f 20/4/6 19/8/6 29/8/6 30/4/6
f 13/9/7 12/10/7 21/10/7 23/9/7
f 14/2/8 13/9/8 23/9/8 24/2/8
f 12/10/9 11/11/9 22/11/9 21/10/9
f 273/12/10 11/11/10 12/10/10 266/13/10
f 272/14/11 20/4/11 11/3/11 273/15/11
f 266/13/12 12/10/12 13/9/12 263/16/12
f 3/17/13 114/18/13 112/19/13 4/20/13
f 4/20/14 112/19/14 110/21/14 5/22/14
f 5/22/15 110/21/15 115/23/15
f 262/24/16 16/6/16 17/5/16 259/25/16
f 259/25/17 17/5/17 18/7/17 257/26/17
f 257/26/18 18/7/19 19/8/19 323/27/20
f 323/27/21 19/8/21 20/4/21 272/14/21
f 23/28/22 21/29/22 31/30/22 33/31/22
f 21/29/23 22/32/23 32/33/23 31/30/23
f 22/32/24 30/34/24 40/35/24 32/33/24
f 24/36/25 23/28/25 33/31/25 34/37/25
f 25/38/26 24/36/26 34/37/26 35/39/26
f 26/40/27 25/38/27 35/39/27 36/41/27
f 27/42/28 26/40/28 36/41/28 37/43/28
f 28/44/29 27/42/29 37/43/29 38/45/29
f 29/46/30 28/44/30 38/45/30 39/47/30
f 30/34/31 29/46/31 39/47/31 40/35/31
f 35/39/32 34/37/32 47/37/32 46/39/32
f 32/33/33 40/35/33 41/35/33 49/33/33
f 36/41/34 35/39/34 46/39/34 45/41/34
f 37/43/35 36/41/35 45/41/35 44/43/35
f 38/45/36 37/43/36 44/43/36 43/45/36
f 39/47/37 38/45/37 43/45/38 42/47/39
f 40/35/40 39/47/40 42/47/40 41/35/40
f 31/30/41 32/33/41 49/33/41 50/30/41
f 33/31/42 31/30/42 50/30/42 48/31/42
f 34/37/43 33/31/43 48/31/44 47/37/45
f 52/48/46 53/49/46 54/50/46 51/51/46
f 53/49/47 55/52/47 56/53/47 54/50/47
f 55/52/48 57/54/48 58/55/48 56/53/48
f 57/54/49 59/56/49 60/57/49 58/55/49
f 59/56/50 61/58/50 62/59/50 60/57/50
f 61/58/51 63/60/51 64/61/51 62/59/51
f 63/60/52 65/62/52 66/63/52 64/61/52
f 65/62/53 67/64/53 68/65/53 66/63/53
f 67/64/54 69/66/54 70/67/54 68/65/54
f 69/66/55 52/48/55 51/51/55 70/67/55
f 1/68/56 2/69/56 53/69/56 52/68/56
f 10/70/57 1/71/57 52/71/57 69/70/57
f 2/69/58 3/17/58 55/17/58 53/69/58
f 3/17/59 4/20/59 57/20/59 55/17/59
f 4/20/60 5/22/60 59/22/60 57/20/60
f 5/22/61 6/72/61 61/72/61 59/22/61
f 6/72/62 7/73/62 63/73/62 61/72/62
f 7/73/63 8/74/63 65/74/63 63/73/63
f 8/74/64 9/75/64 67/75/64 65/74/64
f 9/75/65 10/70/65 69/70/65 67/75/65
f 71/76/66 73/77/66 74/65/66 72/67/66
f 75/78/67 77/79/67 78/61/67 76/63/67
f 79/80/68 81/81/68 82/57/68 80/59/68
f 83/82/69 85/83/69 86/53/69 84/84/69
f 89/85/70 87/86/70 88/51/70 90/50/70
f 85/83/71 89/85/71 90/50/71 86/53/71
f 77/79/72 79/80/72 80/59/72 78/61/72
f 73/77/73 75/78/73 76/63/73 74/65/73
f 81/81/74 83/82/74 84/84/74 82/57/74
f 87/86/75 71/76/75 72/67/75 88/51/75
f 70/67/57 51/51/57 88/51/57 72/67/57
f 68/65/65 70/67/65 72/67/65 74/65/65
f 66/63/64 68/65/64 74/65/64 76/63/64
f 64/61/63 66/63/63 76/63/63 78/61/63
f 62/59/62 64/61/62 78/61/62 80/59/62
f 60/57/61 62/59/61 80/59/61 82/57/61
f 58/55/60 60/57/60 82/57/60 84/84/60
f 56/53/59 58/55/59 84/84/59 86/53/59
f 54/50/58 56/53/58 86/53/58 90/50/58
f 51/51/56 54/50/56 90/50/56 88/51/56
f 71/76/76 87/86/76 117/86/76 118/76/76
f 87/86/77 89/85/77 91/85/77 117/86/77
f 89/85/78 85/83/78 92/83/78 91/85/78
f 85/83/79 83/82/79 93/82/79 92/83/79
f 83/82/80 81/81/80 94/81/80 93/82/80
f 81/81/81 79/80/81 95/80/81 94/81/81
f 79/80/82 77/79/82 96/79/82 95/80/82
f 77/79/83 75/78/83 97/78/83 96/79/83
f 75/78/84 73/77/84 98/77/84 97/78/84
f 73/77/85 71/76/85 118/76/85 98/77/85
f 108/33/86 99/35/86 293/87/86 294/88/86
f 99/35/87 100/47/87 295/89/87 293/87/87
f 100/47/88 101/45/88 296/90/88 295/89/88
f 101/45/89 102/43/89 297/91/89 296/90/89
f 102/43/90 103/41/90 298/92/90 297/91/90
f 103/41/91 104/39/91 299/93/91 298/92/91
f 104/39/92 106/37/92 300/94/92 299/93/92
f 106/37/93 107/31/93 301/95/93 300/94/93
f 107/31/94 109/30/94 302/96/94 301/95/94
f 109/30/95 108/33/95 294/88/95 302/96/95
f 41/35/96 42/47/96 100/47/96 99/35/96
f 49/33/97 41/35/97 99/35/97 108/33/97
f 42/47/39 43/45/38 101/45/98 100/47/98
f 43/45/99 44/43/99 102/43/99 101/45/99
f 44/43/100 45/41/100 103/41/100 102/43/100
f 45/41/101 46/39/101 104/39/101 103/41/101
f 46/39/102 47/37/102 106/37/102 104/39/102
f 47/37/45 48/31/44 107/31/103 106/37/103
f 48/31/104 50/30/104 109/30/104 107/31/104
f 50/30/105 49/33/105 108/33/105 109/30/105
f 26/6/106 113/97/106 15/1/106 25/1/106
f 15/1/107 111/98/107 14/2/107
f 303/99/108 304/100/108 122/101/108 123/102/108
f 305/103/109 306/104/109 127/105/109 129/106/109
f 307/107/110 308/108/110 124/109/110 125/110/110
f 309/111/111 310/112/111 120/113/111 121/114/111
f 311/115/112 305/103/112 129/106/112 119/116/112
f 308/108/113 303/99/113 123/102/113 124/109/113
f 312/117/114 307/107/114 125/110/114 126/118/114
f 310/112/115 311/115/115 119/116/115 120/113/115
f 304/100/116 309/111/116 121/114/116 122/101/116
f 306/104/117 312/117/117 126/118/117 127/105/117
f 120/113/118 119/116/118 117/119/118 91/120/118
f 119/116/119 129/106/119 118/121/119 117/119/119
f 121/114/120 120/113/120 91/120/120 92/122/120
f 122/101/121 121/114/121 92/122/121 93/123/121
f 123/102/122 122/101/122 93/123/122 94/124/122
f 124/109/123 123/102/123 94/124/123 95/125/123
f 125/110/124 124/109/124 95/125/124 96/126/124
f 126/118/125 125/110/125 96/126/125 97/127/125
f 127/105/126 126/118/126 97/127/126 98/128/126
f 129/106/127 127/105/127 98/128/127 118/121/127
f 144/1/128 154/1/128 153/2/128 143/2/128
f 140/3/129 151/3/129 159/4/129 149/4/129
f 146/5/130 156/5/130 155/6/130 145/6/130
f 147/7/131 157/7/131 156/5/131 146/5/131
f 148/8/132 158/8/132 157/7/132 147/7/132
f 149/4/133 159/4/133 158/8/133 148/8/133
f 142/9/134 152/9/134 150/10/134 141/10/134
f 143/2/135 153/2/135 152/9/135 142/9/135
f 141/10/136 150/10/136 151/11/136 140/11/136
f 270/12/137 324/13/137 141/10/137 140/11/137
f 267/14/138 270/15/138 140/3/138 149/4/138
f 324/13/139 325/16/139 142/9/139 141/10/139
f 132/17/140 133/20/140 250/19/140 335/18/140
f 133/20/141 134/22/141 248/21/141 250/19/141
f 134/22/142 253/23/142 248/21/142
f 326/24/143 327/25/143 146/5/143 145/6/143
f 327/25/144 328/26/144 147/7/144 146/5/144
f 328/26/145 329/27/145 148/8/145 147/7/145
f 329/27/146 267/14/146 149/4/146 148/8/146
f 152/28/147 162/31/147 160/30/147 150/29/147
f 150/29/148 160/30/148 161/33/148 151/32/148
f 151/32/149 161/33/149 169/35/149 159/34/149
f 153/36/150 163/37/150 162/31/150 152/28/150
f 154/38/151 164/39/151 163/37/151 153/36/151
f 155/40/152 165/41/152 164/39/152 154/38/152
f 156/42/153 166/43/153 165/41/153 155/40/153
f 157/44/154 167/45/154 166/43/154 156/42/154
f 158/46/155 168/47/155 167/45/155 157/44/155
f 159/34/156 169/35/156 168/47/156 158/46/156
f 164/39/157 175/39/157 176/37/157 163/37/157
f 161/33/158 178/33/158 170/35/158 169/35/158
f 165/41/159 174/41/159 175/39/159 164/39/159
f 166/43/160 173/43/160 174/41/160 165/41/160
f 167/45/161 172/45/161 173/43/161 166/43/161
f 168/47/162 171/47/162 172/45/162 167/45/162
f 169/35/163 170/35/163 171/47/163 168/47/163
f 160/30/164 179/30/164 178/33/164 161/33/164
f 162/31/165 177/31/165 179/30/165 160/30/165
f 163/37/166 176/37/166 177/31/166 162/31/166
f 181/48/167 180/51/167 183/50/167 182/49/167
f 182/49/168 183/50/168 185/53/168 184/52/168
f 184/52/169 185/53/169 187/55/169 186/54/169
f 186/54/170 187/55/170 189/57/170 188/56/170
f 188/56/171 189/57/171 191/59/171 190/58/171
f 190/58/172 191/59/172 193/61/172 192/60/172
f 192/60/173 193/61/173 195/63/173 194/62/173
f 194/62/174 195/63/174 197/65/174 196/64/174
f 196/64/175 197/65/175 199/67/175 198/66/175
f 198/66/176 199/67/176 180/51/176 181/48/176
f 130/68/177 181/68/177 182/69/177 131/69/177
f 139/70/178 198/70/178 181/71/178 130/71/178
f 131/69/179 182/69/179 184/17/179 132/17/179
f 132/17/180 184/17/180 186/20/180 133/20/180
f 133/20/181 186/20/181 188/22/181 134/22/181
f 134/22/182 188/22/182 190/72/182 135/72/182
f 135/72/183 190/72/183 192/73/183 136/73/183
f 136/73/184 192/73/184 194/74/184 137/74/184
f 137/74/185 194/74/185 196/75/185 138/75/185
f 138/75/186 196/75/186 198/70/186 139/70/186
f 200/76/187 201/67/187 203/65/187 202/77/187
f 204/78/188 205/63/188 207/61/188 206/79/188
f 208/80/189 209/59/189 211/57/189 210/81/189
f 212/82/190 213/84/190 215/53/190 214/83/190
f 218/85/191 219/50/191 217/51/191 216/86/191
f 214/83/192 215/53/192 219/50/192 218/85/192
f 206/79/193 207/61/193 209/59/193 208/80/193
f 202/77/194 203/65/194 205/63/194 204/78/194
f 210/81/195 211/57/195 213/84/195 212/82/195
f 216/86/196 217/51/196 201/67/196 200/76/196
f 199/67/197 201/67/197 217/51/197 180/51/197
f 197/65/198 203/65/198 201/67/198 199/67/198
f 195/63/199 205/63/199 203/65/199 197/65/199
f 193/61/200 207/61/200 205/63/200 195/63/200
f 191/59/201 209/59/201 207/61/201 193/61/201
f 189/57/202 211/57/202 209/59/202 191/59/202
f 187/55/203 213/84/203 211/57/203 189/57/203
f 185/53/204 215/53/204 213/84/204 187/55/204
f 183/50/205 219/50/205 215/53/205 185/53/205
f 180/51/206 217/51/206 219/50/206 183/50/206
f 200/76/207 256/76/207 255/86/207 216/86/207
f 216/86/208 255/86/208 220/85/208 218/85/208
f 218/85/209 220/85/209 221/83/209 214/83/209
f 214/83/210 221/83/210 222/82/210 212/82/210
f 212/82/211 222/82/211 223/81/211 210/81/211
f 210/81/212 223/81/212 224/80/212 208/80/212
f 208/80/213 224/80/213 225/79/213 206/79/213
f 206/79/214 225/79/214 226/78/214 204/78/214
f 204/78/215 226/78/215 227/77/215 202/77/215
f 202/77/216 227/77/216 256/76/216 200/76/216
f 245/33/217 244/88/217 229/87/217 228/35/217
f 228/35/218 229/87/218 231/89/218 230/47/218
f 230/47/219 231/89/219 233/90/219 232/45/219
f 232/45/220 233/90/220 235/91/220 234/43/220
f 234/43/221 235/91/221 237/92/221 236/41/221
f 236/41/222 237/92/222 239/93/222 238/39/222
f 238/39/223 239/93/223 241/94/223 240/37/223
f 240/37/224 241/94/224 243/95/224 242/31/224
f 242/31/225 243/95/225 247/96/225 246/30/225
f 246/30/226 247/96/226 244/88/226 245/33/226
f 244/88/227 247/96/227 243/95/227 241/94/227 239/93/227 237/92/227 235/91/227 233/90/227 231/89/227 229/87/227
f 170/35/228 228/35/228 230/47/228 171/47/228
f 178/33/229 245/33/229 228/35/229 170/35/229
f 171/47/230 230/47/230 232/45/230 172/45/230
f 172/45/231 232/45/231 234/43/231 173/43/231
f 173/43/232 234/43/232 236/41/232 174/41/232
f 174/41/233 236/41/233 238/39/233 175/39/233
f 175/39/234 238/39/234 240/37/234 176/37/234
f 176/37/235 240/37/235 242/31/235 177/31/235
f 177/31/236 242/31/236 246/30/236 179/30/236
f 179/30/237 246/30/237 245/33/237 178/33/237
f 155/6/238 154/1/238 144/1/238 251/97/238
f 144/1/239 143/2/239 249/98/239
f 313/99/240 265/102/240 264/101/240 314/100/240
f 315/103/241 276/106/241 274/105/241 316/104/241
f 317/107/242 269/110/242 268/109/242 318/108/242
f 319/111/243 261/114/243 260/113/243 320/112/243
f 321/115/244 258/116/244 276/106/244 315/103/244
f 318/108/245 268/109/245 265/102/245 313/99/245
f 322/117/246 271/118/246 269/110/246 317/107/246
f 320/112/247 260/113/247 258/116/247 321/115/247
f 314/100/248 264/101/248 261/114/248 319/111/248
f 316/104/249 274/105/249 271/118/249 322/117/249
f 260/113/250 220/120/250 255/119/250 258/116/250
f 258/116/251 255/119/251 256/121/251 276/106/251
f 285/129/252 286/130/252 324/13/252 270/12/252
f 261/114/253 221/122/253 220/120/253 260/113/253
f 264/101/254 222/123/254 221/122/254 261/114/254
f 265/102/255 223/124/255 222/123/255 264/101/255
f 268/109/256 224/125/256 223/124/256 265/102/256
f 269/110/257 225/126/257 224/125/257 268/109/257
f 271/118/258 226/127/258 225/126/258 269/110/258
f 274/105/259 227/128/259 226/127/259 271/118/259
f 276/106/260 256/121/260 227/128/260 274/105/260
f 6/72/261 5/22/261 134/22/261 135/72/261
f 26/6/262 16/6/262 145/6/262 155/6/262
f 330/131/263 6/72/263 135/72/263 336/131/263
f 15/1/264 113/97/264 251/97/264 144/1/264
f 113/97/265 26/6/265 155/6/265 251/97/265
f 1/68/266 340/132/266 252/133/266 2/69/266
f 10/70/267 341/134/267 340/135/267 1/71/267
f 111/98/268 15/1/268 144/1/268 249/98/268
f 5/22/269 115/23/269 253/23/269 134/22/269
f 115/23/270 110/21/270 248/21/270 253/23/270
f 112/19/271 116/136/271 254/136/271 250/19/271
f 116/136/272 111/98/272 249/98/272 254/136/272
f 262/24/273 281/137/273 289/137/273 326/24/273
f 339/138/274 343/134/274 287/139/274 292/140/274
f 338/141/275 339/138/275 292/140/275 291/142/275
f 337/143/276 338/141/276 291/142/276 290/144/276
f 336/131/277 337/143/277 290/144/277 289/137/277
f 334/133/278 335/18/278 288/145/278 286/130/278
f 343/134/279 342/135/279 285/146/279 287/139/279
f 342/132/280 334/133/280 286/130/280 285/129/280
f 333/138/281 284/140/281 279/139/281 341/134/281
f 332/141/282 283/142/283 284/140/284 333/138/282
f 331/143/285 282/144/285 283/142/285 332/141/285
f 330/131/286 281/137/286 282/144/286 331/143/286
f 252/133/287 278/130/287 280/145/287 114/18/287
f 341/134/288 279/139/288 277/146/288 340/135/288
f 340/132/289 277/129/289 278/130/289 252/133/289
f 116/136/290 280/145/290 263/16/290 111/98/290
f 105/147/291 294/88/292 293/87/293
f 105/148/291 293/87/293 295/89/294
f 105/149/295 295/89/295 296/90/295
f 105/150/296 296/90/297 297/91/298
f 105/151/296 297/91/298 298/92/299
f 105/152/300 298/92/301 299/93/302
f 105/153/300 299/93/302 300/94/303
f 105/154/304 300/94/304 301/95/304
f 105/155/305 301/95/306 302/96/307
f 105/156/305 302/96/307 294/88/308
f 128/157/309 304/100/309 303/99/309
f 128/158/309 306/104/309 305/103/309
f 128/159/309 308/108/309 307/107/309
f 128/160/309 310/112/309 309/111/309
f 128/161/309 305/103/309 311/115/309
f 128/162/309 303/99/309 308/108/309
f 128/163/309 307/107/309 312/117/309
f 128/164/309 311/115/309 310/112/309
f 128/165/309 309/111/309 304/100/309
f 128/166/309 312/117/309 306/104/309
f 275/167/310 313/99/310 314/100/310
f 275/168/310 315/103/310 316/104/310
f 275/169/310 317/107/310 318/108/310
f 275/170/310 319/111/310 320/112/310
f 275/171/310 321/115/310 315/103/310
f 275/172/310 318/108/310 313/99/310
f 275/173/310 322/117/310 317/107/310
f 275/174/310 320/112/310 321/115/310
f 275/175/310 314/100/310 319/111/310
f 275/176/310 316/104/310 322/117/310
f 287/139/311 285/146/311 270/15/311 267/14/311
f 286/130/312 288/145/312 325/16/312 324/13/312
f 289/137/313 290/144/313 327/25/313 326/24/313
f 290/144/314 291/142/314 328/26/314 327/25/314
f 291/142/315 292/140/315 329/27/315 328/26/315
f 292/140/316 287/139/316 267/14/316 329/27/316
f 16/6/317 262/24/317 326/24/317 145/6/317
f 284/140/318 323/27/318 272/14/318 279/139/318
f 283/142/283 257/26/18 323/27/20 284/140/284
f 282/144/319 259/25/319 257/26/319 283/142/319
f 281/137/320 262/24/320 259/25/320 282/144/320
f 278/130/321 266/13/321 263/16/321 280/145/321
f 279/139/322 272/14/322 273/15/322 277/146/322
f 277/129/323 273/12/323 266/13/323 278/130/323
f 111/98/324 263/16/324 13/9/324 14/2/324
f 325/16/325 249/98/325 143/2/325 142/9/325
f 288/145/326 254/136/326 249/98/326 325/16/326
f 110/21/327 112/19/327 250/19/327 248/21/327
f 2/69/328 252/133/328 114/18/328 3/17/328
f 6/72/329 330/131/329 331/143/329 7/73/329
f 7/73/330 331/143/330 332/141/330 8/74/330
f 8/74/331 332/141/331 333/138/331 9/75/331
f 9/75/332 333/138/332 341/134/332 10/70/332
f 130/68/333 131/69/333 334/133/333 342/132/333
f 139/70/334 130/71/334 342/135/334 343/134/334
f 131/69/335 132/17/335 335/18/335 334/133/335
f 135/72/336 136/73/336 337/143/336 336/131/336
f 136/73/337 137/74/337 338/141/337 337/143/337
f 137/74/338 138/75/338 339/138/338 338/141/338
f 138/75/339 139/70/339 343/134/339 339/138/339
f 281/137/340 330/131/340 336/131/340 289/137/340
f 112/19/341 114/18/341 280/145/341 116/136/341
f 335/18/342 250/19/342 254/136/342 288/145/342
