# Blender 5.2.0 LTS
# www.blender.org
mtllib Textures.mtl
o wall
v 1.000000 0.104705 -1.000000
v 1.000000 2.104705 -1.000000
v -1.000000 0.104705 -1.000000
v -1.000000 2.104705 -1.000000
v 1.000000 0.104705 1.000000
v 1.000000 2.104705 1.000000
v -1.000000 0.104705 1.000000
v -1.000000 2.104705 1.000000
vn -0.0000 -0.0000 1.0000
vn -0.0000 -0.0000 -1.0000
vt 0.000100 0.000100
vt 0.999900 0.000100
vt 0.999900 0.999900
vt 0.000100 0.999900
s 0
usemtl Wall
f 3/1/1 1/2/1 2/3/1 4/4/1
f 7/1/2 8/4/2 6/3/2 5/2/2
o floor
v 1.000000 0.104705 -1.000000
v 1.000000 0.104705 1.000000
v -1.000000 0.104705 -1.000000
v -1.000000 0.104705 1.000000
v -1.000000 0.104705 -1.000000
v -1.000000 0.104705 1.000000
v -3.000000 0.104705 -1.000000
v -3.000000 0.104705 1.000000
v -3.000000 0.104705 -1.000000
v -3.000000 0.104705 1.000000
v -5.000000 0.104705 -1.000000
v -5.000000 0.104705 1.000000
v -5.000000 0.104705 -1.000000
v -5.000000 0.104705 1.000000
v -7.000000 0.104705 -1.000000
v -7.000000 0.104705 1.000000
vn -0.0000 1.0000 -0.0000
vt 0.999900 0.999900
vt 0.000100 0.999900
vt 0.000100 0.000100
vt 0.999900 0.000100
s 0
usemtl Floor
f 10/5/3 9/6/3 11/7/3 12/8/3
f 14/5/3 13/6/3 15/7/3 16/8/3
f 18/5/3 17/6/3 19/7/3 20/8/3
f 22/5/3 21/6/3 23/7/3 24/8/3
o ceiling
v 1.000000 2.104705 -1.000000
v 1.000000 2.104705 1.000000
v -1.000000 2.104705 -1.000000
v -1.000000 2.104705 1.000000
v -1.000000 2.104705 -1.000000
v -1.000000 2.104705 1.000000
v -3.000000 2.104705 -1.000000
v -3.000000 2.104705 1.000000
v -3.000000 2.104705 -1.000000
v -3.000000 2.104705 1.000000
v -5.000000 2.104705 -1.000000
v -5.000000 2.104705 1.000000
v -5.000000 2.104705 -1.000000
v -5.000000 2.104705 1.000000
v -7.000000 2.104705 -1.000000
v -7.000000 2.104705 1.000000
vn -0.0000 -1.0000 -0.0000
vt 0.000100 0.000100
vt 0.999900 0.000100
vt 0.999900 0.999900
vt 0.000100 0.999900
s 0
usemtl ceiling
f 28/9/4 27/10/4 25/11/4 26/12/4
f 32/9/4 31/10/4 29/11/4 30/12/4
f 36/9/4 35/10/4 33/11/4 34/12/4
f 40/9/4 39/10/4 37/11/4 38/12/4
o wall.001
v -3.000000 0.104705 -1.000000
v -3.000000 2.104705 -1.000000
v -5.000000 0.104705 -1.000000
v -5.000000 2.104705 -1.000000
v -3.000000 0.104705 1.000000
v -3.000000 2.104705 1.000000
v -5.000000 0.104705 1.000000
v -5.000000 2.104705 1.000000
vn -0.0000 -0.0000 1.0000
vn -0.0000 -0.0000 -1.0000
vt 0.000100 0.000100
vt 0.999900 0.000100
vt 0.999900 0.999900
vt 0.000100 0.999900
s 0
usemtl Wall3
f 43/13/5 41/14/5 42/15/5 44/16/5
f 47/13/6 48/16/6 46/15/6 45/14/6
o wall.002
v -1.000000 0.104705 -1.000000
v -1.000000 2.104705 -1.000000
v -3.000000 0.104705 -1.000000
v -3.000000 2.104705 -1.000000
v -1.000000 0.104705 1.000000
v -1.000000 2.104705 1.000000
v -3.000000 0.104705 1.000000
v -3.000000 2.104705 1.000000
vn -0.0000 -0.0000 1.0000
vn -0.0000 -0.0000 -1.0000
vt 0.000100 0.000100
vt 0.999900 0.000100
vt 0.999900 0.999900
vt 0.000100 0.999900
s 0
usemtl Wall2
f 51/17/7 49/18/7 50/19/7 52/20/7
f 55/17/8 56/20/8 54/19/8 53/18/8
o wall.003
v -5.000000 0.104705 -1.000000
v -5.000000 2.104705 -1.000000
v -7.000000 0.104705 -1.000000
v -7.000000 2.104705 -1.000000
v -5.000000 0.104705 1.000000
v -5.000000 2.104705 1.000000
v -7.000000 0.104705 1.000000
v -7.000000 2.104705 1.000000
vn -0.0000 -0.0000 1.0000
vn -0.0000 -0.0000 -1.0000
vt 0.000100 0.000100
vt 0.999900 0.000100
vt 0.999900 0.999900
vt 0.000100 0.999900
s 0
usemtl WALL4
f 59/21/9 57/22/9 58/23/9 60/24/9
f 63/21/10 64/24/10 62/23/10 61/22/10
o floor.001
v -9.000000 0.104705 -3.000000
v -7.000000 0.104705 -3.000000
v -9.000000 0.104705 -1.000000
v -7.000000 0.104705 -1.000000
v -9.000000 0.104705 -1.000000
v -7.000000 0.104705 -1.000000
v -9.000000 0.104705 1.000000
v -7.000000 0.104705 1.000000
v -9.000000 0.104705 1.000000
v -7.000000 0.104705 1.000000
v -9.000000 0.104705 3.000000
v -7.000000 0.104705 3.000000
vn -0.0000 1.0000 -0.0000
vt 0.999900 0.999900
vt 0.000100 0.999900
vt 0.000100 0.000100
vt 0.999900 0.000100
s 0
usemtl Floor
f 66/25/11 65/26/11 67/27/11 68/28/11
f 70/25/11 69/26/11 71/27/11 72/28/11
f 74/25/11 73/26/11 75/27/11 76/28/11
o wall.004
v -9.000000 0.104705 -3.000000
v -9.000000 2.104705 -3.000000
v -9.000000 0.104705 -1.000000
v -9.000000 2.104705 -1.000000
v -7.000000 0.104705 -3.000000
v -7.000000 2.104705 -3.000000
v -7.000000 0.104705 -1.000000
v -7.000000 2.104705 -1.000000
vn 1.0000 -0.0000 -0.0000
vn -1.0000 -0.0000 -0.0000
vt 0.000100 0.000100
vt 0.999900 0.000100
vt 0.999900 0.999900
vt 0.000100 0.999900
s 0
usemtl Wall3
f 79/29/12 77/30/12 78/31/12 80/32/12
f 83/29/13 84/32/13 82/31/13 81/30/13
o wall.005
v -9.000000 0.104705 -1.000000
v -9.000000 2.104705 -1.000000
v -9.000000 0.104705 1.000000
v -9.000000 2.104705 1.000000
vn 1.0000 -0.0000 -0.0000
vt 0.000100 0.000100
vt 0.999900 0.000100
vt 0.999900 0.999900
vt 0.000100 0.999900
s 0
usemtl WALL4
f 87/33/14 85/34/14 86/35/14 88/36/14
o wall.006
v -9.000000 0.104705 1.000000
v -9.000000 2.104705 1.000000
v -9.000000 0.104705 3.000000
v -9.000000 2.104705 3.000000
v -7.000000 0.104705 1.000000
v -7.000000 2.104705 1.000000
v -7.000000 0.104705 3.000000
v -7.000000 2.104705 3.000000
vn 1.0000 -0.0000 -0.0000
vn -1.0000 -0.0000 -0.0000
vt 0.000100 0.000100
vt 0.999900 0.000100
vt 0.999900 0.999900
vt 0.000100 0.999900
s 0
usemtl Wall2
f 91/37/15 89/38/15 90/39/15 92/40/15
f 95/37/16 96/40/16 94/39/16 93/38/16
o ceiling.001
v -9.000000 2.104705 -3.000000
v -7.000000 2.104705 -3.000000
v -9.000000 2.104705 -1.000000
v -7.000000 2.104705 -1.000000
v -9.000000 2.104705 -1.000000
v -7.000000 2.104705 -1.000000
v -9.000000 2.104705 1.000000
v -7.000000 2.104705 1.000000
v -9.000000 2.104705 1.000000
v -7.000000 2.104705 1.000000
v -9.000000 2.104705 3.000000
v -7.000000 2.104705 3.000000
vn -0.0000 -1.0000 -0.0000
vt 0.000100 0.000100
vt 0.999900 0.000100
vt 0.999900 0.999900
vt 0.000100 0.999900
s 0
usemtl ceiling
f 100/41/17 99/42/17 97/43/17 98/44/17
f 104/41/17 103/42/17 101/43/17 102/44/17
f 108/41/17 107/42/17 105/43/17 106/44/17
